<?xml version="1.0" standalone="no"?>
<!DOCTYPE svg PUBLIC "-//W3C//DTD SVG 20010904//EN"
 "http://www.w3.org/TR/2001/REC-SVG-20010904/DTD/svg10.dtd">
<svg version="1.0" xmlns="http://www.w3.org/2000/svg"
 width="1920.000000pt" height="381.000000pt" viewBox="0 0 1920.000000 381.000000"
 preserveAspectRatio="xMidYMid meet">

<g transform="translate(0.000000,381.000000) scale(0.100000,-0.100000)"
fill="#000000" stroke="none">
<path d="M3680 3570 c-747 -97 -1342 -339 -1738 -705 l-72 -67 0 -70 c0 -112
57 -351 115 -482 7 -15 -6 -12 -64 20 -96 51 -190 138 -227 209 -16 30 -32 55
-35 55 -3 0 -27 -36 -53 -80 -127 -213 -217 -502 -246 -789 -11 -116 -12 -366
-1 -486 l7 -79 -60 -80 c-77 -101 -174 -263 -232 -385 -69 -144 -150 -391
-128 -391 14 0 142 85 238 159 115 88 307 269 390 369 l58 69 191 6 c375 10
711 100 1007 268 361 205 618 479 801 854 l68 140 -52 8 c-205 29 -289 56
-412 130 l-70 42 165 6 c120 5 186 12 242 27 89 24 178 64 201 90 18 20 67
243 92 417 17 117 20 399 5 512 -14 104 -40 237 -48 244 -4 3 -68 -2 -142 -11z"/>
<path d="M9130 3299 c-398 -58 -577 -101 -725 -174 -305 -149 -469 -415 -516
-834 -17 -156 -6 -470 21 -596 60 -281 197 -477 401 -578 119 -59 193 -77 349
-84 103 -4 143 -1 224 15 205 43 365 149 471 312 84 130 118 252 119 430 0
241 -77 435 -232 581 -126 119 -282 175 -462 166 -171 -9 -320 -75 -437 -194
-71 -71 -73 -69 -47 50 24 109 77 212 144 278 90 91 192 134 405 174 115 21
477 75 505 75 6 0 10 70 10 205 0 189 -1 205 -17 204 -10 0 -106 -14 -213 -30z
m-359 -1143 c146 -34 242 -140 269 -299 31 -178 -63 -359 -219 -418 -78 -29
-195 -29 -273 0 -79 30 -150 97 -190 179 -31 63 -33 72 -33 177 0 105 2 114
33 177 74 151 241 225 413 184z"/>
<path d="M5005 3183 c-127 -16 -296 -64 -387 -109 l-48 -24 0 -206 c0 -113 3
-204 8 -202 231 118 314 142 507 142 161 1 227 -14 297 -67 126 -96 121 -275
-11 -354 -75 -45 -127 -53 -341 -53 l-190 0 0 -185 0 -185 168 0 c190 0 285
-11 351 -41 93 -41 132 -100 132 -201 1 -116 -63 -200 -191 -250 -80 -32 -261
-31 -380 1 -101 27 -229 85 -311 141 l-59 40 0 -223 0 -222 58 -32 c227 -124
585 -166 842 -99 214 56 371 176 449 341 41 86 55 156 54 265 -1 206 -98 361
-278 447 l-75 35 57 35 c207 123 299 337 248 576 -48 228 -240 378 -539 423
-83 13 -286 17 -361 7z"/>
<path d="M10547 2635 c-123 -31 -249 -111 -322 -205 l-40 -51 -17 93 c-10 51
-20 103 -23 116 -5 22 -7 22 -190 22 l-185 0 0 -1060 0 -1060 220 0 220 0 0
397 0 397 63 -67 c69 -75 147 -125 246 -159 55 -19 86 -23 186 -22 106 0 129
4 195 29 260 97 431 331 470 645 53 417 -151 797 -490 910 -85 28 -251 36
-333 15z m168 -420 c244 -119 288 -504 79 -694 -165 -151 -431 -103 -532 96
-79 154 -65 368 32 496 38 50 111 102 175 122 68 22 179 13 246 -20z"/>
<path d="M17230 2643 c-196 -33 -392 -187 -493 -388 -118 -237 -123 -567 -11
-804 118 -250 326 -403 569 -418 197 -11 368 61 490 209 22 26 42 48 45 48 4
0 15 -49 25 -110 l19 -110 188 0 188 0 0 770 0 770 -188 0 -188 0 -18 -107
c-11 -60 -20 -109 -22 -111 -1 -2 -40 34 -85 80 -95 95 -173 139 -286 163 -64
14 -177 18 -233 8z m362 -422 c58 -24 129 -88 162 -144 57 -98 74 -258 41
-374 -59 -207 -246 -314 -443 -254 -267 81 -351 469 -149 688 96 105 260 140
389 84z"/>
<path d="M6110 2606 c0 -2 128 -334 285 -737 157 -404 287 -741 287 -749 1 -9
-53 -146 -119 -305 -67 -160 -125 -298 -129 -308 -6 -16 7 -17 216 -15 l223 3
418 1054 c231 579 419 1055 419 1057 0 2 -103 4 -228 4 l-228 0 -164 -505
c-90 -278 -167 -505 -170 -505 -3 0 -80 227 -171 505 l-164 505 -237 0 c-131
0 -238 -2 -238 -4z"/>
<path d="M11670 1840 l0 -770 214 0 214 0 279 444 278 444 3 -444 2 -444 205
0 205 0 0 770 0 770 -207 -2 -207 -3 -286 -447 -285 -447 -3 449 -2 450 -205
0 -205 0 0 -770z"/>
<path d="M13560 2183 c0 -236 -5 -462 -10 -503 -17 -129 -70 -207 -152 -224
-16 -3 -39 -8 -53 -11 l-25 -5 0 -192 0 -191 93 6 c304 20 478 147 550 402 18
63 21 107 25 423 l4 352 174 0 174 0 0 -585 0 -585 220 0 220 0 0 770 0 770
-610 0 -610 0 0 -427z"/>
<path d="M15160 1840 l0 -770 220 0 220 0 2 369 3 369 234 -369 234 -369 254
0 c201 0 253 3 247 13 -4 6 -127 186 -272 400 l-264 387 259 362 c142 199 260
365 261 370 2 4 -106 8 -240 8 l-245 0 -234 -347 -234 -348 -3 348 -2 347
-220 0 -220 0 0 -770z"/>
</g>
</svg>
