<svg width="337" height="44" viewBox="0 0 337 44" fill="none" xmlns="http://www.w3.org/2000/svg">
<path d="M0 22C0 12.6177 0 7.92655 2.47976 4.69486C3.11817 3.86288 3.86288 3.11817 4.69486 2.47976C7.92655 0 12.6177 0 22 0H315C324.382 0 329.073 0 332.305 2.47976C333.137 3.11817 333.882 3.86288 334.52 4.69486C337 7.92655 337 12.6177 337 22C337 31.3823 337 36.0735 334.52 39.3051C333.882 40.1371 333.137 40.8818 332.305 41.5202C329.073 44 324.382 44 315 44H22C12.6177 44 7.92655 44 4.69486 41.5202C3.86288 40.8818 3.11817 40.1371 2.47976 39.3051C0 36.0735 0 31.3823 0 22Z" fill="black"/>
<rect x="82.5" y="10" width="24" height="24" rx="12" fill="#FC3F1D"/>
<path d="M96.1911 29.212H98.6981V14.812H95.0515C91.3841 14.812 89.4572 16.6975 89.4572 19.4739C89.4572 21.6909 90.5139 22.9962 92.3994 24.3429L89.1257 29.212H91.84L95.4866 23.7628L94.2227 22.9133C92.6895 21.8773 91.9436 21.0693 91.9436 19.3288C91.9436 17.7956 93.021 16.7596 95.0722 16.7596H96.1911V29.212Z" fill="white"/>
<path d="M119.896 15.528H123.8C125.165 15.528 126.205 15.7413 126.92 16.168C127.635 16.5947 127.992 17.3147 127.992 18.328C127.992 18.744 127.933 19.1067 127.816 19.416C127.699 19.7147 127.528 19.976 127.304 20.2C127.091 20.4133 126.829 20.5893 126.52 20.728C126.211 20.8667 125.869 20.9733 125.496 21.048C126.456 21.1653 127.181 21.4267 127.672 21.832C128.163 22.2373 128.408 22.856 128.408 23.688C128.408 24.2853 128.291 24.7973 128.056 25.224C127.821 25.64 127.496 25.9813 127.08 26.248C126.664 26.504 126.173 26.696 125.608 26.824C125.043 26.9413 124.429 27 123.768 27H119.896V15.528ZM121.832 17.208V20.264H123.896C124.536 20.264 125.053 20.1307 125.448 19.864C125.843 19.5867 126.04 19.1547 126.04 18.568C126.04 18.0347 125.859 17.6773 125.496 17.496C125.144 17.304 124.643 17.208 123.992 17.208H121.832ZM121.832 21.928V25.336H123.96C124.323 25.336 124.653 25.3093 124.952 25.256C125.251 25.192 125.507 25.096 125.72 24.968C125.933 24.8293 126.099 24.6533 126.216 24.44C126.333 24.216 126.392 23.944 126.392 23.624C126.392 22.9947 126.184 22.5573 125.768 22.312C125.363 22.056 124.707 21.928 123.8 21.928H121.832Z" fill="white"/>
<path d="M133.773 27.16C133.186 27.16 132.642 27.064 132.141 26.872C131.639 26.68 131.202 26.4027 130.829 26.04C130.466 25.6667 130.178 25.2133 129.965 24.68C129.762 24.1467 129.661 23.5333 129.661 22.84C129.661 22.1467 129.762 21.5333 129.965 21C130.178 20.4667 130.466 20.0187 130.829 19.656C131.202 19.2827 131.639 19.0053 132.141 18.824C132.642 18.632 133.186 18.536 133.773 18.536C134.359 18.536 134.903 18.632 135.405 18.824C135.906 19.0053 136.343 19.2827 136.717 19.656C137.09 20.0187 137.383 20.4667 137.597 21C137.81 21.5333 137.917 22.1467 137.917 22.84C137.917 23.5333 137.81 24.1467 137.597 24.68C137.383 25.2133 137.09 25.6667 136.717 26.04C136.343 26.4027 135.906 26.68 135.405 26.872C134.903 27.064 134.359 27.16 133.773 27.16ZM133.773 25.608C134.413 25.608 134.941 25.384 135.357 24.936C135.783 24.488 135.997 23.7893 135.997 22.84C135.997 21.9013 135.783 21.208 135.357 20.76C134.941 20.3013 134.413 20.072 133.773 20.072C133.143 20.072 132.615 20.3013 132.189 20.76C131.773 21.208 131.565 21.9013 131.565 22.84C131.565 23.7893 131.773 24.488 132.189 24.936C132.615 25.384 133.143 25.608 133.773 25.608Z" fill="white"/>
<path d="M143.214 17.704C142.766 17.704 142.376 17.6453 142.046 17.528C141.726 17.4107 141.454 17.2507 141.23 17.048C141.016 16.8347 140.856 16.5893 140.75 16.312C140.643 16.024 140.59 15.72 140.59 15.4H142.222C142.222 15.7733 142.307 16.0453 142.478 16.216C142.659 16.376 142.904 16.456 143.214 16.456C143.523 16.456 143.763 16.376 143.934 16.216C144.104 16.0453 144.19 15.7733 144.19 15.4H145.838C145.838 15.72 145.784 16.024 145.678 16.312C145.571 16.5893 145.406 16.8347 145.182 17.048C144.968 17.2507 144.696 17.4107 144.366 17.528C144.035 17.6453 143.651 17.704 143.214 17.704ZM141.31 24.488L145.15 18.696H146.974V27H145.134V21.24L141.326 27H139.47V18.696H141.31V24.488Z" fill="white"/>
<path d="M152.775 20.2V27H150.919V20.2H148.407V18.696H155.335V20.2H152.775Z" fill="white"/>
<path d="M158.591 24.488L162.431 18.696H164.255V27H162.415V21.24L158.607 27H156.751V18.696H158.591V24.488Z" fill="white"/>
<path d="M173.684 27.16C173.012 27.16 172.41 27.064 171.876 26.872C171.343 26.6693 170.89 26.3867 170.516 26.024C170.143 25.6507 169.855 25.1973 169.652 24.664C169.45 24.1307 169.348 23.5227 169.348 22.84C169.348 22.168 169.45 21.5653 169.652 21.032C169.855 20.4987 170.143 20.0507 170.516 19.688C170.89 19.3147 171.348 19.032 171.892 18.84C172.436 18.6373 173.044 18.536 173.716 18.536C174.292 18.536 174.794 18.6 175.22 18.728C175.658 18.856 176.004 19.016 176.26 19.208V20.744C175.93 20.5307 175.567 20.3653 175.172 20.248C174.788 20.1307 174.34 20.072 173.828 20.072C172.111 20.072 171.252 20.9947 171.252 22.84C171.252 24.6853 172.095 25.608 173.78 25.608C174.324 25.608 174.788 25.5493 175.172 25.432C175.567 25.304 175.93 25.144 176.26 24.952V26.488C175.983 26.6693 175.636 26.8293 175.22 26.968C174.804 27.096 174.292 27.16 173.684 27.16Z" fill="white"/>
<path d="M181.597 19.128C181.597 18.52 181.704 17.992 181.917 17.544C182.131 17.0853 182.429 16.712 182.813 16.424C183.197 16.1253 183.656 15.9013 184.189 15.752C184.733 15.6027 185.336 15.528 185.997 15.528H189.725V27H187.773V22.584H185.997L183.069 27H180.813L184.045 22.296C183.213 22.0933 182.595 21.7253 182.189 21.192C181.795 20.648 181.597 19.96 181.597 19.128ZM187.773 20.968V17.208H185.981C185.256 17.208 184.675 17.352 184.237 17.64C183.811 17.9173 183.597 18.3973 183.597 19.08C183.597 19.752 183.789 20.2373 184.173 20.536C184.557 20.824 185.101 20.968 185.805 20.968H187.773Z" fill="white"/>
<path d="M197.345 23.496H193.841V27H191.985V18.696H193.841V21.992H197.345V18.696H199.201V27H197.345V23.496Z" fill="white"/>
<path d="M201.058 25.496C201.303 25.2827 201.495 24.9893 201.634 24.616C201.783 24.2427 201.901 23.7787 201.986 23.224C202.071 22.6587 202.135 22.0027 202.178 21.256C202.221 20.5093 202.258 19.656 202.29 18.696H208.37V25.496H209.618V29.368H208.002L207.858 27H202.13L201.986 29.368H200.354V25.496H201.058ZM206.514 25.496V20.2H203.89C203.837 21.512 203.746 22.6 203.618 23.464C203.501 24.3173 203.303 24.9947 203.026 25.496H206.514Z" fill="white"/>
<path d="M217.773 26.392C217.656 26.4667 217.512 26.552 217.341 26.648C217.17 26.7333 216.968 26.8133 216.733 26.888C216.498 26.9627 216.226 27.0267 215.917 27.08C215.608 27.1333 215.256 27.16 214.861 27.16C213.336 27.16 212.194 26.7813 211.437 26.024C210.69 25.2667 210.317 24.2053 210.317 22.84C210.317 22.168 210.418 21.5653 210.621 21.032C210.824 20.4987 211.106 20.0507 211.469 19.688C211.832 19.3147 212.264 19.032 212.765 18.84C213.266 18.6373 213.816 18.536 214.413 18.536C215.032 18.536 215.586 18.6373 216.077 18.84C216.578 19.0427 216.989 19.3467 217.309 19.752C217.629 20.1573 217.848 20.6587 217.965 21.256C218.093 21.8533 218.098 22.552 217.981 23.352H212.237C212.312 24.1093 212.562 24.68 212.989 25.064C213.416 25.4373 214.082 25.624 214.989 25.624C215.65 25.624 216.2 25.544 216.637 25.384C217.085 25.2133 217.464 25.0373 217.773 24.856V26.392ZM214.413 20.008C213.869 20.008 213.41 20.1733 213.037 20.504C212.664 20.8347 212.418 21.3253 212.301 21.976H216.205C216.226 21.304 216.077 20.808 215.757 20.488C215.437 20.168 214.989 20.008 214.413 20.008Z" fill="white"/>
<path d="M222.28 23.624H221.56V27H219.704V18.696H221.56V22.12H222.344L224.984 18.696H226.936L223.8 22.696L227.064 27H224.872L222.28 23.624Z" fill="white"/>
<path d="M231.731 27.16C231.059 27.16 230.456 27.064 229.923 26.872C229.39 26.6693 228.936 26.3867 228.563 26.024C228.19 25.6507 227.902 25.1973 227.699 24.664C227.496 24.1307 227.395 23.5227 227.395 22.84C227.395 22.168 227.496 21.5653 227.699 21.032C227.902 20.4987 228.19 20.0507 228.563 19.688C228.936 19.3147 229.395 19.032 229.939 18.84C230.483 18.6373 231.091 18.536 231.763 18.536C232.339 18.536 232.84 18.6 233.267 18.728C233.704 18.856 234.051 19.016 234.307 19.208V20.744C233.976 20.5307 233.614 20.3653 233.219 20.248C232.835 20.1307 232.387 20.072 231.875 20.072C230.158 20.072 229.299 20.9947 229.299 22.84C229.299 24.6853 230.142 25.608 231.827 25.608C232.371 25.608 232.835 25.5493 233.219 25.432C233.614 25.304 233.976 25.144 234.307 24.952V26.488C234.03 26.6693 233.683 26.8293 233.267 26.968C232.851 27.096 232.339 27.16 231.731 27.16Z" fill="white"/>
<path d="M241.66 15.528V27H239.724V15.528H241.66Z" fill="white"/>
<path d="M244.115 15.528H247.987C248.797 15.528 249.549 15.6187 250.243 15.8C250.947 15.9813 251.555 16.28 252.067 16.696C252.589 17.112 252.995 17.6613 253.283 18.344C253.581 19.0267 253.731 19.8693 253.731 20.872C253.731 21.8853 253.581 22.776 253.283 23.544C252.995 24.3013 252.584 24.936 252.051 25.448C251.528 25.96 250.904 26.3493 250.179 26.616C249.464 26.872 248.68 27 247.827 27H244.115V15.528ZM246.051 17.208V25.336H247.891C248.456 25.336 248.968 25.2507 249.427 25.08C249.896 24.9093 250.296 24.648 250.627 24.296C250.968 23.944 251.229 23.496 251.411 22.952C251.603 22.3973 251.699 21.7413 251.699 20.984C251.699 20.2373 251.608 19.624 251.427 19.144C251.245 18.6533 250.989 18.264 250.659 17.976C250.339 17.688 249.955 17.4907 249.507 17.384C249.059 17.2667 248.573 17.208 248.051 17.208H246.051Z" fill="white"/>
</svg>
